<svg xmlns="http://www.w3.org/2000/svg" version="1.1" xmlns:xlink="http://www.w3.org/1999/xlink" xmlns:svgjs="http://svgjs.dev/svgjs" width="2000" height="1331" viewBox="0 0 2000 1331">
    <g transform="matrix(1,0,0,1,-0.12206900888395467,0.5388663967611365)">
        <svg viewBox="0 0 371 247" data-background-color="#ffffff" preserveAspectRatio="xMidYMid meet" height="1331" width="2000" xmlns="http://www.w3.org/2000/svg" xmlns:xlink="http://www.w3.org/1999/xlink">
            <g id="tight-bounds" transform="matrix(1,0,0,1,0.022643801147978593,-0.09999999999999432)">
                <svg viewBox="0 0 370.9546933667084 247.2" height="247.2" width="370.9546933667084">
                    <g>
                        <svg viewBox="0 0 370.9546933667084 247.2" height="247.2" width="370.9546933667084">
                            <g>
                                <svg viewBox="0 0 370.9546933667084 247.2" height="247.2" width="370.9546933667084">
                                    <g id="textblocktransform">
                                        <svg viewBox="0 0 370.9546933667084 247.2" height="247.2" width="370.9546933667084" id="textblock">
                                            <g>
                                                <svg viewBox="0 0 370.9546933667084 247.2" height="247.2" width="370.9546933667084">
                                                    <g transform="matrix(1,0,0,1,0,0)">
                                                        <svg width="370.9546933667084" viewBox="-0.8500000238418579 -38.75 59.94999694824219 39.95000076293945" height="247.2" data-palette-color="#233565">
                                                            <path d="M21.85-11.1Q15.3-10 11.4-9.1L11.4-9.1Q10.2-7.2 9.85-6.55L9.85-6.55Q8.8-4.7 7.98-3.48 7.15-2.25 6.2-1.3L6.2-1.3Q5.15-0.25 4.48 0.2 3.8 0.65 2.9 0.65L2.9 0.65Q1.4 0.65 0.28-0.03-0.85-0.7-0.85-1.4L-0.85-1.4Q-0.75-1.5 0.25-3.63 1.25-5.75 3.95-8.95L3.95-8.95Q3.95-9.35 3.7-9.95 3.45-10.55 3.45-10.65L3.45-10.65Q3.45-12.1 8-14.15L8-14.15Q10.55-17.95 13.38-21.65 16.2-25.35 20.3-30.4L20.3-30.4Q21.3-31.65 22.85-32.45 24.4-33.25 25.95-33.25L25.95-33.25Q27.55-33.25 28.35-32.95 29.15-32.65 29.38-32.15 29.6-31.65 29.6-30.75L29.6-30.75Q29.4-29.25 29.35-28.5L29.35-28.5Q28.6-22.45 28.23-18.13 27.85-13.8 27.85-9.5L27.85-9.5Q27.85-5.55 28.2-2.25L28.2-2.25Q28.05-1.05 27.15-0.08 26.25 0.9 25.05 0.9L25.05 0.9Q22.75 0.9 22.03-0.25 21.3-1.4 21.3-4.15L21.3-4.15Q21.3-6.15 21.85-11.1L21.85-11.1ZM15.35-14.85Q16.25-15.05 18.1-15.3L18.1-15.3 22.1-15.9Q22.55-22.85 23.15-25.9L23.15-25.9Q21.2-23.6 15.35-14.85L15.35-14.85ZM39.4-2.3Q39.1-1.6 38.95-1.05L38.95-1.05Q38.5 0.1 38.15 0.63 37.8 1.15 37.05 1.15L37.05 1.15 35.65 1.2Q34.4 1.2 33.65 0.68 32.9 0.15 32.8-1.45L32.8-1.45Q32.85-1.5 33.3-2.58 33.75-3.65 34.2-5.5L34.2-5.5Q34.8-7.95 35.4-10.35 36-12.75 36.55-15L36.55-15Q37.3-17.95 38.75-23.83 40.2-29.7 41-33.15L41-33.15Q40.95-33.9 40.9-35.23 40.85-36.55 40.85-37.3L40.85-37.3Q41-37.95 41.97-38.35 42.95-38.75 43.75-38.75L43.75-38.75Q45-38.75 46.35-37.9 47.7-37.05 47.75-35.85L47.75-35.85 44-21.05Q45.35-22.6 47.27-23.23 49.2-23.85 50.85-23.85L50.85-23.85Q53.2-23.85 55.07-22.5 56.95-21.15 58.02-18.93 59.1-16.7 59.1-14.25L59.1-14.25Q59.1-10.65 57.4-7.18 55.7-3.7 52.45-1.48 49.2 0.75 44.85 0.75L44.85 0.75Q43.6 0.75 41.77-0.15 39.95-1.05 39.4-2.3L39.4-2.3ZM40.6-6.45Q41.25-5.3 42.55-4.4 43.85-3.5 44.9-3.5L44.9-3.5Q47.25-3.5 49.2-5.58 51.15-7.65 52.3-10.53 53.45-13.4 53.45-15.7L53.45-15.7Q53.45-17.3 52.6-18.35 51.75-19.4 50.1-19.4L50.1-19.4Q48.65-19.4 47-18.75 45.35-18.1 44.07-16.88 42.8-15.65 42.35-14.05L42.35-14.05 40.6-6.45Z" opacity="1" transform="matrix(1,0,0,1,0,0)" fill="#233565" class="wordmark-text-0" data-fill-palette-color="primary" id="text-0"></path>
                                                        </svg>
                                                    </g>
                                                </svg>
                                            </g>
                                        </svg>
                                    </g>
                                </svg>
                            </g>
                        </svg>
                    </g>
                    <defs></defs>
                </svg>
                <rect width="370.9546933667084" height="247.2" fill="none" stroke="none" visibility="hidden"></rect>
            </g>
        </svg>
    </g>
</svg>
